-
      the fast  and The Hottest Private Tracker on the net

Please Seed back to make the speed Faster!!
 ............ NFO .............
-[IMG]http://i.imgur.com/5ETjuL3.jpg[/IMG]

Source: DL.1080p.BluRay.x264-EPHEMERiD
 
http://www.imdb.com/title/tt1912982/

Infected by a virus, a mild mannered HR manager attempts to fulfill his overwhelming desire for brains, all while trying to keep it together so as not to incur the wrath of his bridezilla-to-be

General
Complete name                            : A Little Bit Zombie 2012 BRRip x264 AAC-OFFLiNE.mp4
Format                                   : MPEG-4
Format profile                           : Base Media
Codec ID                                 : isom
File size                                : 1.43 GiB
Duration                                 : 1h 27mn
Overall bit rate mode                    : Variable
Overall bit rate                         : 2 344 Kbps
Encoded date                             : UTC 2013-03-16 12:56:54
Tagged date                              : UTC 2013-03-16 12:56:54

Video
ID                                       : 1
Format                                   : AVC
Format/Info                              : Advanced Video Codec
Format profile                           : High@L4.1
Format settings, CABAC                   : Yes
Format settings, ReFrames                : 3 frames
Codec ID                                 : avc1
Codec ID/Info                            : Advanced Video Coding
Duration                                 : 1h 27mn
Bit rate mode                            : Variable
Bit rate                                 : 2 000 Kbps
Maximum bit rate                         : 40.0 Mbps
Width                                    : 720 pixels
Height                                   : 400 pixels
Display aspect ratio                     : 16:9
Frame rate mode                          : Constant
Frame rate                               : 23.976 fps
Color space                              : YUV
Chroma subsampling                       : 4:2:0
Bit depth                                : 8 bits
Scan type                                : Progressive
Bits/(Pixel*Frame)                       : 0.290
Stream size                              : 1.22 GiB (85%)
Writing library                          : x264 core 130 r2273 b3065e6

Audio
ID                                       : 2
Format                                   : AAC
Format/Info                              : Advanced Audio Codec
Format profile                           : LC
Codec ID                                 : 40
Duration                                 : 1h 27mn
Bit rate mode                            : Variable
Bit rate                                 : 342 Kbps
Maximum bit rate                         : 393 Kbps
Channel(s)                               : 6 channels
Channel positions                        : Front: L C R, Side: L R, LFE
Sampling rate                            : 48.0 KHz
Compression mode                         : Lossy
Stream size                              : 214 MiB (15%)
Language                                 : English
Encoded date                             : UTC 2013-03-16 07:54:48
Tagged date                              : UTC 2013-03-16 12:57:26

[IMG]http://i.imgur.com/9KFFWtY.png[/IMG]
[IMG]http://i.imgur.com/usiaI19.png[/IMG]
[IMG]http://i.imgur.com/9iMNujZ.png[/IMG]
[IMG]http://i.imgur.com/KdlPBcB.png[/IMG]
[IMG]http://i.imgur.com/feTGxZp.png[/IMG]

Greets: To Our Friends